{
  "accessors": [
    {
      "bufferView": 2,
      "componentType": 5126,
      "count": 9471,
      "max": [
        247.12420654296875,
        561.4995727539063,
        276.3666076660156
      ],
      "min": [
        -766.1458129882813,
        -506.6416320800781,
        0.0
      ],
      "type": "VEC3"
    },
    {
      "bufferView": 2,
      "byteOffset": 113652,
      "componentType": 5126,
      "count": 9471,
      "max": [
        1.0,
        1.0,
        0.00797943864017725
      ],
      "min": [
        -1.0,
        -1.0,
        -1.0
      ],
      "type": "VEC3"
    },
    {
      "bufferView": 1,
      "componentType": 5126,
      "count": 9471,
      "max": [
        0.0,
        0.0
      ],
      "min": [
        0.0,
        0.0
      ],
      "type": "VEC2"
    },
    {
      "bufferView": 0,
      "componentType": 5125,
      "count": 21009,
      "type": "SCALAR"
    },
    {
      "bufferView": 2,
      "byteOffset": 227304,
      "componentType": 5126,
      "count": 3967,
      "max": [
        247.12420654296875,
        561.4995727539063,
        276.3666076660156
      ],
      "min": [
        -766.1458129882813,
        -506.6416320800781,
        0.0
      ],
      "type": "VEC3"
    },
    {
      "bufferView": 0,
      "byteOffset": 84036,
      "componentType": 5125,
      "count": 11690,
      "type": "SCALAR"
    },
    {
      "bufferView": 2,
      "byteOffset": 274908,
      "componentType": 5126,
      "count": 3220,
      "max": [
        242.01564025878906,
        555.2327880859375,
        242.25588989257813
      ],
      "min": [
        -759.8789672851563,
        -497.7259826660156,
        14.566929817199707
      ],
      "type": "VEC3"
    },
    {
      "bufferView": 2,
      "byteOffset": 313548,
      "componentType": 5126,
      "count": 3220,
      "max": [
        1.0,
        1.0,
        1.0
      ],
      "min": [
        -1.0,
        -1.0,
        0.0
      ],
      "type": "VEC3"
    },
    {
      "bufferView": 1,
      "byteOffset": 75768,
      "componentType": 5126,
      "count": 3220,
      "max": [
        7.009524822235107,
        3.5878560543060303
      ],
      "min": [
        -7.091057777404785,
        0.23125000298023224
      ],
      "type": "VEC2"
    },
    {
      "bufferView": 0,
      "byteOffset": 130796,
      "componentType": 5125,
      "count": 6384,
      "type": "SCALAR"
    },
    {
      "bufferView": 2,
      "byteOffset": 352188,
      "componentType": 5126,
      "count": 741,
      "max": [
        237.24234008789063,
        543.5642700195313,
        276.3666076660156
      ],
      "min": [
        -748.21044921875,
        -452.653564453125,
        14.566929817199707
      ],
      "type": "VEC3"
    },
    {
      "bufferView": 2,
      "byteOffset": 361080,
      "componentType": 5126,
      "count": 741,
      "max": [
        1.0,
        1.0,
        1.0
      ],
      "min": [
        -1.0,
        -1.0,
        0.0
      ],
      "type": "VEC3"
    },
    {
      "bufferView": 1,
      "byteOffset": 101528,
      "componentType": 5126,
      "count": 741,
      "max": [
        -0.7624894976615906,
        18.10430908203125
      ],
      "min": [
        -14.99431037902832,
        -16.261659622192383
      ],
      "type": "VEC2"
    },
    {
      "bufferView": 0,
      "byteOffset": 156332,
      "componentType": 5125,
      "count": 1395,
      "type": "SCALAR"
    },
    {
      "bufferView": 2,
      "byteOffset": 369972,
      "componentType": 5126,
      "count": 587,
      "max": [
        238.76473999023438,
        522.7455444335938,
        266.91778564453125
      ],
      "min": [
        -698.7911376953125,
        -444.5521545410156,
        0.0
      ],
      "type": "VEC3"
    },
    {
      "bufferView": 2,
      "byteOffset": 377016,
      "componentType": 5126,
      "count": 587,
      "max": [
        1.0,
        1.0,
        0.0
      ],
      "min": [
        -1.0,
        -1.0,
        0.0
      ],
      "type": "VEC3"
    },
    {
      "bufferView": 1,
      "byteOffset": 107456,
      "componentType": 5126,
      "count": 587,
      "max": [
        3.8053109645843506,
        2.478476047515869
      ],
      "min": [
        -3.8053109645843506,
        -0.04137273132801056
      ],
      "type": "VEC2"
    },
    {
      "bufferView": 0,
      "byteOffset": 161912,
      "componentType": 5125,
      "count": 1365,
      "type": "SCALAR"
    },
    {
      "bufferView": 2,
      "byteOffset": 384060,
      "componentType": 5126,
      "count": 1125,
      "max": [
        242.01564025878906,
        552.7699584960938,
        271.1070861816406
      ],
      "min": [
        -757.4161987304688,
        -497.7259826660156,
        0.0
      ],
      "type": "VEC3"
    },
    {
      "bufferView": 2,
      "byteOffset": 397560,
      "componentType": 5126,
      "count": 1125,
      "max": [
        1.0,
        1.0,
        3.266438838454778e-18
      ],
      "min": [
        -1.0,
        -1.0,
        -0.00797943864017725
      ],
      "type": "VEC3"
    },
    {
      "bufferView": 1,
      "byteOffset": 112152,
      "componentType": 5126,
      "count": 1125,
      "max": [
        7.016261100769043,
        2.4446029663085938
      ],
      "min": [
        -7.1170430183410645,
        -0.07952828705310822
      ],
      "type": "VEC2"
    },
    {
      "bufferView": 0,
      "byteOffset": 167372,
      "componentType": 5125,
      "count": 1881,
      "type": "SCALAR"
    },
    {
      "bufferView": 2,
      "byteOffset": 411060,
      "componentType": 5126,
      "count": 884,
      "max": [
        242.01564025878906,
        555.2327880859375,
        239.28053283691406
      ],
      "min": [
        -759.8789672851563,
        -497.7259826660156,
        0.0
      ],
      "type": "VEC3"
    },
    {
      "bufferView": 2,
      "byteOffset": 421668,
      "componentType": 5126,
      "count": 884,
      "max": [
        1.0,
        1.0,
        0.0
      ],
      "min": [
        -1.0,
        -1.0,
        -1.8694161075328993e-17
      ],
      "type": "VEC3"
    },
    {
      "bufferView": 1,
      "byteOffset": 121152,
      "componentType": 5126,
      "count": 884,
      "max": [
        10.046879768371582,
        2.370642900466919
      ],
      "min": [
        -9.823630332946777,
        -0.09370428323745728
      ],
      "type": "VEC2"
    },
    {
      "bufferView": 0,
      "byteOffset": 174896,
      "componentType": 5125,
      "count": 1467,
      "type": "SCALAR"
    },
    {
      "bufferView": 2,
      "byteOffset": 432276,
      "componentType": 5126,
      "count": 1422,
      "max": [
        238.76473999023438,
        553.4886474609375,
        271.1070861816406
      ],
      "min": [
        -758.1348876953125,
        -440.23626708984375,
        0.0
      ],
      "type": "VEC3"
    },
    {
      "bufferView": 2,
      "byteOffset": 449340,
      "componentType": 5126,
      "count": 1422,
      "max": [
        1.0,
        1.0,
        0.029772402718663216
      ],
      "min": [
        -1.0,
        -1.0,
        -0.029772402718663216
      ],
      "type": "VEC3"
    },
    {
      "bufferView": 1,
      "byteOffset": 128224,
      "componentType": 5126,
      "count": 1422,
      "max": [
        4.325494766235352,
        1.362975001335144
      ],
      "min": [
        -4.862277030944824,
        -0.015951920300722122
      ],
      "type": "VEC2"
    },
    {
      "bufferView": 1,
      "byteOffset": 139600,
      "componentType": 5126,
      "count": 1422,
      "max": [
        4.325494766235352,
        1.362975001335144
      ],
      "min": [
        -4.862277030944824,
        -0.015951920300722122
      ],
      "type": "VEC2"
    },
    {
      "bufferView": 0,
      "byteOffset": 180764,
      "componentType": 5125,
      "count": 3018,
      "type": "SCALAR"
    },
    {
      "bufferView": 2,
      "byteOffset": 466404,
      "componentType": 5126,
      "count": 655,
      "max": [
        238.76473999023438,
        555.2327880859375,
        271.1070861816406
      ],
      "min": [
        -759.8789672851563,
        -497.7259826660156,
        0.0
      ],
      "type": "VEC3"
    },
    {
      "bufferView": 2,
      "byteOffset": 474264,
      "componentType": 5126,
      "count": 655,
      "max": [
        1.0,
        1.0,
        1.0
      ],
      "min": [
        -1.0,
        -1.0,
        0.0
      ],
      "type": "VEC3"
    },
    {
      "bufferView": 1,
      "byteOffset": 150976,
      "componentType": 5126,
      "count": 655,
      "max": [
        5.909890174865723,
        9.981006622314453
      ],
      "min": [
        -5.980442047119141,
        -0.0711909607052803
      ],
      "type": "VEC2"
    },
    {
      "bufferView": 0,
      "byteOffset": 192836,
      "componentType": 5125,
      "count": 1029,
      "type": "SCALAR"
    },
    {
      "bufferView": 2,
      "byteOffset": 482124,
      "componentType": 5126,
      "count": 260,
      "max": [
        179.83934020996094,
        553.4886474609375,
        241.00393676757813
      ],
      "min": [
        -758.1348876953125,
        -424.99371337890625,
        0.0
      ],
      "type": "VEC3"
    },
    {
      "bufferView": 2,
      "byteOffset": 485244,
      "componentType": 5126,
      "count": 260,
      "max": [
        1.0,
        1.0,
        0.0206387210637331
      ],
      "min": [
        -1.0,
        -1.0,
        0.0
      ],
      "type": "VEC3"
    },
    {
      "bufferView": 1,
      "byteOffset": 156216,
      "componentType": 5126,
      "count": 260,
      "max": [
        4.614809036254883,
        1.5719770193099976
      ],
      "min": [
        -0.9720478057861328,
        -0.9082823991775513
      ],
      "type": "VEC2"
    },
    {
      "bufferView": 0,
      "byteOffset": 196952,
      "componentType": 5125,
      "count": 390,
      "type": "SCALAR"
    },
    {
      "bufferView": 2,
      "byteOffset": 488364,
      "componentType": 5126,
      "count": 1633,
      "max": [
        247.12420654296875,
        561.4995727539063,
        1.421084963300432e-14
      ],
      "min": [
        -766.1458129882813,
        -506.6416320800781,
        0.0
      ],
      "type": "VEC3"
    },
    {
      "bufferView": 2,
      "byteOffset": 507960,
      "componentType": 5126,
      "count": 1633,
      "max": [
        0.0,
        0.0,
        1.0
      ],
      "min": [
        0.0,
        0.0,
        1.0
      ],
      "type": "VEC3"
    },
    {
      "bufferView": 1,
      "byteOffset": 158296,
      "componentType": 5126,
      "count": 1633,
      "max": [
        5.695336776076812e-16,
        14.649999618530273
      ],
      "min": [
        -14.649999618530273,
        -5.329070941717225e-15
      ],
      "type": "VEC2"
    },
    {
      "bufferView": 0,
      "byteOffset": 198512,
      "componentType": 5125,
      "count": 4875,
      "type": "SCALAR"
    },
    {
      "bufferView": 2,
      "byteOffset": 527556,
      "componentType": 5126,
      "count": 117,
      "max": [
        186.33250427246094,
        490.8724670410156,
        210.33074951171875
      ],
      "min": [
        -703.518798828125,
        -452.9464416503906,
        0.0
      ],
      "type": "VEC3"
    },
    {
      "bufferView": 2,
      "byteOffset": 528960,
      "componentType": 5126,
      "count": 117,
      "max": [
        1.0,
        1.0,
        0.0
      ],
      "min": [
        -1.0,
        -1.0,
        0.0
      ],
      "type": "VEC3"
    },
    {
      "bufferView": 0,
      "byteOffset": 218012,
      "componentType": 5125,
      "count": 195,
      "type": "SCALAR"
    },
    {
      "bufferView": 2,
      "byteOffset": 530364,
      "componentType": 5126,
      "count": 572,
      "max": [
        247.12420654296875,
        561.4995727539063,
        1.421084963300432e-14
      ],
      "min": [
        -766.1458129882813,
        -506.6416320800781,
        0.0
      ],
      "type": "VEC3"
    },
    {
      "bufferView": 2,
      "byteOffset": 537228,
      "componentType": 5126,
      "count": 572,
      "max": [
        0.0,
        0.0,
        1.0
      ],
      "min": [
        0.0,
        0.0,
        1.0
      ],
      "type": "VEC3"
    },
    {
      "bufferView": 1,
      "byteOffset": 171360,
      "componentType": 5126,
      "count": 572,
      "max": [
        7.474194903770305e-16,
        19.225719451904297
      ],
      "min": [
        -19.225719451904297,
        -3.5527141023169746e-15
      ],
      "type": "VEC2"
    },
    {
      "bufferView": 0,
      "byteOffset": 218792,
      "componentType": 5125,
      "count": 1506,
      "type": "SCALAR"
    },
    {
      "bufferView": 2,
      "byteOffset": 544092,
      "componentType": 5126,
      "count": 12,
      "max": [
        -22.857847213745117,
        512.0379028320313,
        266.91778564453125
      ],
      "min": [
        -567.76904296875,
        26.726308822631836,
        235.4217071533203
      ],
      "type": "VEC3"
    },
    {
      "bufferView": 0,
      "byteOffset": 224816,
      "componentType": 5125,
      "count": 12,
      "type": "SCALAR"
    }
  ],
  "asset": {
    "extras": {
      "author": "Katydid (https://sketchfab.com/Katydid.)",
      "license": "CC-BY-NC-4.0 (http://creativecommons.org/licenses/by-nc/4.0/)",
      "source": "https://sketchfab.com/3d-models/city-at-night-45b227092fbe42edad4162d5eff5dc65",
      "title": "City at night"
    },
    "generator": "Sketchfab-16.87.0",
    "version": "2.0"
  },
  "bufferViews": [
    {
      "buffer": 0,
      "byteLength": 224864,
      "name": "floatBufferViews",
      "target": 34963
    },
    {
      "buffer": 0,
      "byteLength": 175936,
      "byteOffset": 224864,
      "byteStride": 8,
      "name": "floatBufferViews",
      "target": 34962
    },
    {
      "buffer": 0,
      "byteLength": 544236,
      "byteOffset": 400800,
      "byteStride": 12,
      "name": "floatBufferViews",
      "target": 34962
    }
  ],
  "buffers": [
    {
      "byteLength": 945036,
      "uri": "scene.bin"
    }
  ],
  "extensionsUsed": [
    "KHR_materials_unlit"
  ],
  "images": [
    {
      "uri": "textures/material_baseColor.jpeg"
    },
    {
      "uri": "textures/Asphalt_New_baseColor.jpeg"
    },
    {
      "uri": "textures/tex4_baseColor.png"
    },
    {
      "uri": "textures/tex7_baseColor.png"
    },
    {
      "uri": "textures/tex8_baseColor.png"
    },
    {
      "uri": "textures/tex2_baseColor.png"
    },
    {
      "uri": "textures/tex3_baseColor.png"
    },
    {
      "uri": "textures/tex1_baseColor.png"
    },
    {
      "uri": "textures/Metal_Rough_baseColor.jpeg"
    },
    {
      "uri": "textures/Asphalt_New_1_baseColor.jpeg"
    }
  ],
  "materials": [
    {
      "extensions": {
        "KHR_materials_unlit": {}
      },
      "name": "material",
      "pbrMetallicRoughness": {
        "baseColorTexture": {
          "index": 0
        },
        "metallicFactor": 0.0
      }
    },
    {
      "alphaMode": "BLEND",
      "extensions": {
        "KHR_materials_unlit": {}
      },
      "name": "edge_color000255",
      "pbrMetallicRoughness": {
        "baseColorFactor": [
          1.0,
          1.0,
          1.0,
          0.0
        ],
        "metallicFactor": 0.0
      }
    },
    {
      "extensions": {
        "KHR_materials_unlit": {}
      },
      "name": "Concrete_Form_4x8",
      "pbrMetallicRoughness": {
        "baseColorTexture": {
          "index": 0
        },
        "metallicFactor": 0.0
      }
    },
    {
      "extensions": {
        "KHR_materials_unlit": {}
      },
      "name": "Asphalt_New",
      "pbrMetallicRoughness": {
        "baseColorTexture": {
          "index": 1
        },
        "metallicFactor": 0.0
      }
    },
    {
      "extensions": {
        "KHR_materials_unlit": {}
      },
      "name": "tex4",
      "pbrMetallicRoughness": {
        "baseColorTexture": {
          "index": 2
        },
        "metallicFactor": 0.0
      }
    },
    {
      "extensions": {
        "KHR_materials_unlit": {}
      },
      "name": "tex7",
      "pbrMetallicRoughness": {
        "baseColorTexture": {
          "index": 3
        },
        "metallicFactor": 0.0
      }
    },
    {
      "extensions": {
        "KHR_materials_unlit": {}
      },
      "name": "tex8",
      "pbrMetallicRoughness": {
        "baseColorTexture": {
          "index": 4
        },
        "metallicFactor": 0.0
      }
    },
    {
      "extensions": {
        "KHR_materials_unlit": {}
      },
      "name": "tex2",
      "pbrMetallicRoughness": {
        "baseColorTexture": {
          "index": 5
        },
        "metallicFactor": 0.0
      }
    },
    {
      "extensions": {
        "KHR_materials_unlit": {}
      },
      "name": "tex3",
      "pbrMetallicRoughness": {
        "baseColorTexture": {
          "index": 6
        },
        "metallicFactor": 0.0
      }
    },
    {
      "extensions": {
        "KHR_materials_unlit": {}
      },
      "name": "tex1",
      "pbrMetallicRoughness": {
        "baseColorTexture": {
          "index": 7
        },
        "metallicFactor": 0.0
      }
    },
    {
      "extensions": {
        "KHR_materials_unlit": {}
      },
      "name": "Metal_Rough",
      "pbrMetallicRoughness": {
        "baseColorTexture": {
          "index": 8
        },
        "metallicFactor": 0.0
      }
    },
    {
      "extensions": {
        "KHR_materials_unlit": {}
      },
      "name": "material_0",
      "pbrMetallicRoughness": {
        "baseColorFactor": [
          0.670588,
          0.690196,
          0.8,
          1.0
        ],
        "metallicFactor": 0.0
      }
    },
    {
      "extensions": {
        "KHR_materials_unlit": {}
      },
      "name": "Asphalt_New_1",
      "pbrMetallicRoughness": {
        "baseColorTexture": {
          "index": 9
        },
        "metallicFactor": 0.0
      }
    },
    {
      "extensions": {
        "KHR_materials_unlit": {}
      },
      "name": "edge_color705939255",
      "pbrMetallicRoughness": {
        "metallicFactor": 0.0
      }
    }
  ],
  "meshes": [
    {
      "name": "Material2",
      "primitives": [
        {
          "attributes": {
            "NORMAL": 1,
            "POSITION": 0,
            "TEXCOORD_0": 2
          },
          "indices": 3,
          "material": 0,
          "mode": 4
        }
      ]
    },
    {
      "name": "Material3",
      "primitives": [
        {
          "attributes": {
            "POSITION": 4
          },
          "indices": 5,
          "material": 1,
          "mode": 1
        }
      ]
    },
    {
      "name": "Material3",
      "primitives": [
        {
          "attributes": {
            "NORMAL": 7,
            "POSITION": 6,
            "TEXCOORD_0": 8
          },
          "indices": 9,
          "material": 2,
          "mode": 4
        }
      ]
    },
    {
      "name": "Material3",
      "primitives": [
        {
          "attributes": {
            "NORMAL": 11,
            "POSITION": 10,
            "TEXCOORD_0": 12
          },
          "indices": 13,
          "material": 3,
          "mode": 4
        }
      ]
    },
    {
      "name": "Material3",
      "primitives": [
        {
          "attributes": {
            "NORMAL": 15,
            "POSITION": 14,
            "TEXCOORD_0": 16
          },
          "indices": 17,
          "material": 4,
          "mode": 4
        }
      ]
    },
    {
      "name": "Material3",
      "primitives": [
        {
          "attributes": {
            "NORMAL": 19,
            "POSITION": 18,
            "TEXCOORD_0": 20
          },
          "indices": 21,
          "material": 5,
          "mode": 4
        }
      ]
    },
    {
      "name": "Material3",
      "primitives": [
        {
          "attributes": {
            "NORMAL": 23,
            "POSITION": 22,
            "TEXCOORD_0": 24
          },
          "indices": 25,
          "material": 6,
          "mode": 4
        }
      ]
    },
    {
      "name": "Material2",
      "primitives": [
        {
          "attributes": {
            "NORMAL": 27,
            "POSITION": 26,
            "TEXCOORD_0": 28,
            "TEXCOORD_1": 29
          },
          "indices": 30,
          "material": 7,
          "mode": 4
        }
      ]
    },
    {
      "name": "Material3",
      "primitives": [
        {
          "attributes": {
            "NORMAL": 32,
            "POSITION": 31,
            "TEXCOORD_0": 33
          },
          "indices": 34,
          "material": 8,
          "mode": 4
        }
      ]
    },
    {
      "name": "Material3",
      "primitives": [
        {
          "attributes": {
            "NORMAL": 36,
            "POSITION": 35,
            "TEXCOORD_0": 37
          },
          "indices": 38,
          "material": 9,
          "mode": 4
        }
      ]
    },
    {
      "name": "Material3",
      "primitives": [
        {
          "attributes": {
            "NORMAL": 40,
            "POSITION": 39,
            "TEXCOORD_0": 41
          },
          "indices": 42,
          "material": 10,
          "mode": 4
        }
      ]
    },
    {
      "name": "Material3",
      "primitives": [
        {
          "attributes": {
            "NORMAL": 44,
            "POSITION": 43
          },
          "indices": 45,
          "material": 11,
          "mode": 4
        }
      ]
    },
    {
      "name": "Material3",
      "primitives": [
        {
          "attributes": {
            "NORMAL": 47,
            "POSITION": 46,
            "TEXCOORD_0": 48
          },
          "indices": 49,
          "material": 12,
          "mode": 4
        }
      ]
    },
    {
      "name": "Material5",
      "primitives": [
        {
          "attributes": {
            "POSITION": 50
          },
          "indices": 51,
          "material": 13,
          "mode": 1
        }
      ]
    }
  ],
  "nodes": [
    {
      "children": [
        1
      ],
      "matrix": [
        1.0,
        0.0,
        0.0,
        0.0,
        0.0,
        2.220446049250313e-16,
        -1.0,
        0.0,
        0.0,
        1.0,
        2.220446049250313e-16,
        0.0,
        0.0,
        0.0,
        0.0,
        1.0
      ],
      "name": "Sketchfab_model"
    },
    {
      "children": [
        2,
        3,
        4,
        5,
        6,
        7,
        8,
        9,
        10,
        11,
        12,
        13,
        14,
        15,
        16
      ],
      "name": "Collada visual scene group"
    },
    {
      "mesh": 0,
      "name": "Material2"
    },
    {
      "mesh": 1,
      "name": "Material3"
    },
    {
      "mesh": 2,
      "name": "Material3"
    },
    {
      "mesh": 3,
      "name": "Material3"
    },
    {
      "mesh": 4,
      "name": "Material3"
    },
    {
      "mesh": 5,
      "name": "Material3"
    },
    {
      "mesh": 6,
      "name": "Material3"
    },
    {
      "mesh": 7,
      "name": "Material2"
    },
    {
      "mesh": 8,
      "name": "Material3"
    },
    {
      "mesh": 9,
      "name": "Material3"
    },
    {
      "mesh": 10,
      "name": "Material3"
    },
    {
      "mesh": 11,
      "name": "Material3"
    },
    {
      "mesh": 12,
      "name": "Material3"
    },
    {
      "mesh": 13,
      "name": "Material5"
    },
    {
      "children": [
        17
      ],
      "name": "SketchUp"
    },
    {
      "children": [
        18
      ],
      "matrix": [
        -0.3954885,
        -0.9184709,
        -2.775558e-17,
        0.0,
        0.4348294,
        -0.1872351,
        0.8808328,
        0.0,
        -0.8090193,
        0.3483593,
        0.4734275,
        0.0,
        -982.9764,
        382.3351,
        555.8323,
        1.0
      ],
      "name": "skp_camera_Last_Saved_SketchUp_View"
    },
    {
      "name": "ID1"
    }
  ],
  "samplers": [
    {
      "magFilter": 9729,
      "minFilter": 9987,
      "wrapS": 10497,
      "wrapT": 10497
    }
  ],
  "scene": 0,
  "scenes": [
    {
      "name": "Sketchfab_Scene",
      "nodes": [
        0
      ]
    }
  ],
  "textures": [
    {
      "sampler": 0,
      "source": 0
    },
    {
      "sampler": 0,
      "source": 1
    },
    {
      "sampler": 0,
      "source": 2
    },
    {
      "sampler": 0,
      "source": 3
    },
    {
      "sampler": 0,
      "source": 4
    },
    {
      "sampler": 0,
      "source": 5
    },
    {
      "sampler": 0,
      "source": 6
    },
    {
      "sampler": 0,
      "source": 7
    },
    {
      "sampler": 0,
      "source": 8
    },
    {
      "sampler": 0,
      "source": 9
    }
  ]
}
